# xmcd CD database file
#
# Track frame offsets:
#	150
#	19870
#	39592
#	56047
#	76277
#	95060
#	116655
#	135777
#	155392
#	170920
#
# Disc length: 2572 seconds
#
# Revision: 0
# Processed by: cddbd v1.5.1PL0 Copyright (c) Steve Scherf et al.
# Submitted via: CDex 1.51
#
DISCID=7e0a0a0a
DTITLE=Long John Baldry - Silent Treatment
DYEAR=1992
DGENRE=Blues
TTITLE0=Silent Treatment
TTITLE1=This Is Japan
TTITLE2=Ain't That Peculiar
TTITLE3=Ain't No Love In The Heart Of The City
TTITLE4=Carnival
TTITLE5=When The World Doesn't Love You
TTITLE6=Here Comes Another Fool
TTITLE7=Our Love Is In Limba
TTITLE8=The Sun Ain't Gonna Shine Anymore
TTITLE9=A Life Of Blues
EXTD=YEAR: 1992
EXTT0=
EXTT1=
EXTT2=
EXTT3=
EXTT4=
EXTT5=
EXTT6=
EXTT7=
EXTT8=
EXTT9=
PLAYORDER=
